<svg t="1624599830898" class="icon" viewBox="0 0 1024 1024" version="1.1" xmlns="http://www.w3.org/2000/svg"
    p-id="1864" width="200" height="200">
    <path
      d="M512 64c247.424 0 448 200.576 448 448s-200.576 448-448 448S64 759.424 64 512 264.576 64 512 64z m0 544c-75.328 0-138.304 37.76-186.624 110.24a32 32 0 0 0 53.248 35.52C415.68 698.208 459.328 672 512 672c52.672 0 96.32 26.208 133.376 81.76a32 32 0 1 0 53.248-35.52C650.304 645.792 587.328 608 512 608z m-160-224a64 64 0 1 0 0 128 64 64 0 0 0 0-128z m320 0a64 64 0 1 0 0 128 64 64 0 0 0 0-128z"
      fill="#d81e06" fill-rule="evenodd" p-id="1865"></path>
  </svg>